<?xml version="1.0" standalone="no"?><!DOCTYPE svg PUBLIC "-//W3C//DTD SVG 1.1//EN" "http://www.w3.org/Graphics/SVG/1.1/DTD/svg11.dtd"><svg t="1643858962877" class="icon" viewBox="0 0 1024 1024" version="1.1" xmlns="http://www.w3.org/2000/svg" p-id="2491" xmlns:xlink="http://www.w3.org/1999/xlink" width="200" height="200"><defs><style type="text/css"></style></defs><path d="M215.210667 465.92l243.968 170.88 209.066666 146.346667a277.376 277.376 0 0 0 7.978667-267.861334l-11.733333-22.912 182.741333-260.992-174.762667-122.368-182.741333 260.992-25.514667-3.157333a277.376 277.376 0 0 0-249.002666 99.114667z m219.52 205.824l-232.533334 332.032a21.333333 21.333333 0 1 1-34.901333-24.448L399.786667 647.253333l-297.088-208.042666a21.333333 21.333333 0 1 1 24.448-34.944l53.034666 37.12a320.042667 320.042667 0 0 1 289.365334-116.906667l167.978666-239.957333-52.394666-36.693334a21.333333 21.333333 0 0 1 24.448-34.986666l349.525333 244.736a21.333333 21.333333 0 1 1-24.490667 34.986666l-52.437333-36.736-167.978667 239.914667a320.042667 320.042667 0 0 1-10.922666 311.893333l52.992 37.12a21.333333 21.333333 0 1 1-24.448 34.986667l-297.088-208.042667z" p-id="2492" fill="#ffb52b"></path></svg>