<?xml version="1.0" standalone="no"?><!DOCTYPE svg PUBLIC "-//W3C//DTD SVG 1.1//EN" "http://www.w3.org/Graphics/SVG/1.1/DTD/svg11.dtd"><svg t="1642494443899" class="icon" viewBox="0 0 1024 1024" version="1.1" xmlns="http://www.w3.org/2000/svg" p-id="5352" xmlns:xlink="http://www.w3.org/1999/xlink" width="200" height="200"><defs><style type="text/css"></style></defs><path d="M913.2 960.6h-803c-25.8 0-46.8-21-46.8-46.8v-803c0-25.8 21-46.8 46.8-46.8h803C939 64 960 85 960 110.8v803c0 25.8-21 46.8-46.8 46.8zM110.2 104c-3.6 0-6.7 3.1-6.7 6.7v803c0 3.6 3.1 6.7 6.7 6.7h803c3.6 0 6.7-3.1 6.7-6.7v-803c0-3.6-3.1-6.7-6.7-6.7h-803z" fill="#8a8a8a" p-id="5353"></path><path d="M759.3 314.8H371.1c-11 0-20.1 9-20.1 20.1 0 11 9 20.1 20.1 20.1h388.1c11 0 20.1-9 20.1-20.1 0-11.1-9-20.1-20-20.1z" fill="#8a8a8a" p-id="5354"></path><path d="M304.2 334.9m-40.2 0a40.2 40.2 0 1 0 80.4 0 40.2 40.2 0 1 0-80.4 0Z" fill="#8a8a8a" p-id="5355"></path><path d="M304.2 314.8c11.1 0 20.1 9 20.1 20.1 0 11.1-9 20.1-20.1 20.1s-20.1-9-20.1-20.1c0-11.1 9.1-20.1 20.1-20.1m0-40.1c-33.3 0-60.2 27-60.2 60.2 0 33.3 27 60.2 60.2 60.2s60.2-27 60.2-60.2c0.1-33.3-26.9-60.2-60.2-60.2z" fill="#8a8a8a" p-id="5356"></path><path d="M759.3 492.1H264.1c-11 0-20.1 9-20.1 20.1 0 11 9 20.1 20.1 20.1h495.2c11 0 20.1-9 20.1-20.1-0.1-11-9.1-20.1-20.1-20.1z" fill="#8a8a8a" p-id="5357"></path><path d="M511.7 512.2m-40.2 0a40.2 40.2 0 1 0 80.4 0 40.2 40.2 0 1 0-80.4 0Z" fill="#8a8a8a" p-id="5358"></path><path d="M511.7 492.1c11.1 0 20.1 9 20.1 20.1 0 11.1-9 20.1-20.1 20.1-11.1 0-20.1-9-20.1-20.1 0-11 9-20.1 20.1-20.1m0-40.1c-33.3 0-60.2 27-60.2 60.2 0 33.3 27 60.2 60.2 60.2 33.3 0 60.2-27 60.2-60.2s-27-60.2-60.2-60.2z" fill="#8a8a8a" p-id="5359"></path><path d="M658.9 669.5H264.1c-11 0-20.1 9-20.1 20.1 0 11 9 20.1 20.1 20.1h394.8c11 0 20.1-9 20.1-20.1 0-11.1-9.1-20.1-20.1-20.1z" fill="#8a8a8a" p-id="5360"></path><path d="M719.1 689.6m-40.2 0a40.2 40.2 0 1 0 80.4 0 40.2 40.2 0 1 0-80.4 0Z" fill="#8a8a8a" p-id="5361"></path><path d="M719.1 669.5c11.1 0 20.1 9 20.1 20.1 0 11.1-9 20.1-20.1 20.1s-20.1-9-20.1-20.1c0-11.1 9.1-20.1 20.1-20.1m0-40.2c-33.3 0-60.2 27-60.2 60.2 0 33.3 27 60.2 60.2 60.2s60.2-27 60.2-60.2-26.9-60.2-60.2-60.2z" fill="#8a8a8a" p-id="5362"></path></svg>