<?xml version="1.0" standalone="no"?><!DOCTYPE svg PUBLIC "-//W3C//DTD SVG 1.1//EN" "http://www.w3.org/Graphics/SVG/1.1/DTD/svg11.dtd"><svg t="1642477121062" class="icon" viewBox="0 0 1024 1024" version="1.1" xmlns="http://www.w3.org/2000/svg" p-id="3604" xmlns:xlink="http://www.w3.org/1999/xlink" width="200" height="200"><defs><style type="text/css"></style></defs><path d="M745.333 492.556h58.333c0 150.982-115.318 275.524-262.5 290.205V391.187c44.82-12.739 77.778-53.949 77.778-102.798 0-58.969-47.975-106.944-106.944-106.944S405.056 229.42 405.056 288.389c0 48.848 32.957 90.059 77.778 102.798V782.76c-147.179-14.681-262.5-139.223-262.5-290.205h58.333L162 366.167v126.389c0 192.992 157.008 350 350 350s350-157.008 350-350V366.167L745.333 492.556zM463.389 288.389c0-26.803 21.809-48.611 48.611-48.611 26.803 0 48.611 21.809 48.611 48.611S538.803 337 512 337c-26.803 0-48.611-21.809-48.611-48.611z" p-id="3605" fill="#707070"></path></svg>